<mxfile host="app.diagrams.net" modified="2023-10-27T18:05:34.937Z" agent="Mozilla/5.0 (Windows NT 10.0; Win64; x64) AppleWebKit/537.36 (KHTML, like Gecko) Chrome/118.0.0.0 Safari/537.36" etag="11JJIL0wJzNkLd5E0n0Z" version="22.0.8" type="google">
  <diagram name="Page-1" id="VMhHE3e6g1Ab2ui48BeN">
    <mxGraphModel grid="1" page="1" gridSize="10" guides="1" tooltips="1" connect="1" arrows="1" fold="1" pageScale="1" pageWidth="827" pageHeight="1169" math="0" shadow="0">
      <root>
        <mxCell id="0" />
        <mxCell id="1" parent="0" />
        <mxCell id="AIpgbeA93NJmp3kinmn9-67" style="edgeStyle=orthogonalEdgeStyle;rounded=0;orthogonalLoop=1;jettySize=auto;html=1;entryX=0.5;entryY=0;entryDx=0;entryDy=0;shape=link;" edge="1" parent="1" source="AIpgbeA93NJmp3kinmn9-1" target="AIpgbeA93NJmp3kinmn9-66">
          <mxGeometry relative="1" as="geometry" />
        </mxCell>
        <mxCell id="AIpgbeA93NJmp3kinmn9-69" value="1" style="edgeLabel;html=1;align=center;verticalAlign=middle;resizable=0;points=[];" connectable="0" vertex="1" parent="AIpgbeA93NJmp3kinmn9-67">
          <mxGeometry x="0.1143" relative="1" as="geometry">
            <mxPoint as="offset" />
          </mxGeometry>
        </mxCell>
        <mxCell id="AIpgbeA93NJmp3kinmn9-1" value="&lt;font style=&quot;font-size: 21px;&quot;&gt;PATIENT&lt;/font&gt;" style="rounded=0;whiteSpace=wrap;html=1;" vertex="1" parent="1">
          <mxGeometry x="240" y="-370" width="120" height="60" as="geometry" />
        </mxCell>
        <mxCell id="AIpgbeA93NJmp3kinmn9-8" style="edgeStyle=orthogonalEdgeStyle;rounded=0;orthogonalLoop=1;jettySize=auto;html=1;exitX=0.5;exitY=1;exitDx=0;exitDy=0;" edge="1" parent="1">
          <mxGeometry relative="1" as="geometry">
            <mxPoint x="300" y="440" as="sourcePoint" />
            <mxPoint x="300" y="440" as="targetPoint" />
          </mxGeometry>
        </mxCell>
        <mxCell id="AIpgbeA93NJmp3kinmn9-64" value="&lt;font style=&quot;font-size: 16px;&quot;&gt;HEALTH RECORD&lt;/font&gt;" style="rounded=0;whiteSpace=wrap;html=1;" vertex="1" parent="1">
          <mxGeometry x="240" y="-40" width="120" height="60" as="geometry" />
        </mxCell>
        <mxCell id="AIpgbeA93NJmp3kinmn9-68" style="edgeStyle=orthogonalEdgeStyle;rounded=0;orthogonalLoop=1;jettySize=auto;html=1;exitX=0.5;exitY=1;exitDx=0;exitDy=0;shape=link;" edge="1" parent="1" source="AIpgbeA93NJmp3kinmn9-66" target="AIpgbeA93NJmp3kinmn9-64">
          <mxGeometry relative="1" as="geometry" />
        </mxCell>
        <mxCell id="AIpgbeA93NJmp3kinmn9-71" value="1" style="edgeLabel;html=1;align=center;verticalAlign=middle;resizable=0;points=[];" connectable="0" vertex="1" parent="AIpgbeA93NJmp3kinmn9-68">
          <mxGeometry x="-0.1167" y="-1" relative="1" as="geometry">
            <mxPoint as="offset" />
          </mxGeometry>
        </mxCell>
        <mxCell id="AIpgbeA93NJmp3kinmn9-66" value="&lt;font style=&quot;font-size: 15px;&quot;&gt;Keep&lt;/font&gt;" style="rhombus;whiteSpace=wrap;html=1;" vertex="1" parent="1">
          <mxGeometry x="240" y="-240" width="120" height="80" as="geometry" />
        </mxCell>
        <mxCell id="AIpgbeA93NJmp3kinmn9-80" value="&lt;u&gt;Health Record ID&lt;/u&gt;" style="ellipse;whiteSpace=wrap;html=1;" vertex="1" parent="1">
          <mxGeometry x="460" y="-35" width="120" height="50" as="geometry" />
        </mxCell>
        <mxCell id="AIpgbeA93NJmp3kinmn9-85" value="Patient ID" style="ellipse;whiteSpace=wrap;html=1;" vertex="1" parent="1">
          <mxGeometry x="40" y="-100" width="120" height="50" as="geometry" />
        </mxCell>
        <mxCell id="AIpgbeA93NJmp3kinmn9-86" value="" style="endArrow=none;html=1;rounded=0;exitX=1;exitY=0.5;exitDx=0;exitDy=0;" edge="1" parent="1" source="AIpgbeA93NJmp3kinmn9-85">
          <mxGeometry width="50" height="50" relative="1" as="geometry">
            <mxPoint x="300" y="-10" as="sourcePoint" />
            <mxPoint x="240" y="-10" as="targetPoint" />
          </mxGeometry>
        </mxCell>
        <mxCell id="NmKo0EHqz39Op1osBqyC-1" value="&lt;span style=&quot;font-size: 16px;&quot;&gt;CASE MANAGER&lt;/span&gt;" style="rounded=0;whiteSpace=wrap;html=1;" vertex="1" parent="1">
          <mxGeometry x="-340" y="-370" width="120" height="60" as="geometry" />
        </mxCell>
        <mxCell id="NmKo0EHqz39Op1osBqyC-2" value="&lt;font style=&quot;font-size: 16px;&quot;&gt;DISCHARGE&lt;br&gt;LOCATION&lt;br&gt;&lt;/font&gt;" style="rounded=0;whiteSpace=wrap;html=1;" vertex="1" parent="1">
          <mxGeometry x="773.1" y="-375" width="130" height="70" as="geometry" />
        </mxCell>
        <mxCell id="NmKo0EHqz39Op1osBqyC-3" value="&lt;font style=&quot;font-size: 15px;&quot;&gt;Send to&lt;/font&gt;" style="rhombus;whiteSpace=wrap;html=1;" vertex="1" parent="1">
          <mxGeometry x="530" y="-380" width="120" height="80" as="geometry" />
        </mxCell>
        <mxCell id="NmKo0EHqz39Op1osBqyC-5" value="" style="endArrow=none;html=1;rounded=0;entryX=0;entryY=0.5;entryDx=0;entryDy=0;exitX=1;exitY=0.5;exitDx=0;exitDy=0;" edge="1" parent="1" source="NmKo0EHqz39Op1osBqyC-3" target="NmKo0EHqz39Op1osBqyC-2">
          <mxGeometry width="50" height="50" relative="1" as="geometry">
            <mxPoint x="280" y="110" as="sourcePoint" />
            <mxPoint x="330" y="60" as="targetPoint" />
          </mxGeometry>
        </mxCell>
        <mxCell id="NmKo0EHqz39Op1osBqyC-10" value="[0,1]" style="edgeLabel;html=1;align=center;verticalAlign=middle;resizable=0;points=[];" connectable="0" vertex="1" parent="NmKo0EHqz39Op1osBqyC-5">
          <mxGeometry x="0.0722" y="-1" relative="1" as="geometry">
            <mxPoint as="offset" />
          </mxGeometry>
        </mxCell>
        <mxCell id="NmKo0EHqz39Op1osBqyC-6" value="" style="endArrow=none;html=1;rounded=0;entryX=0;entryY=0.5;entryDx=0;entryDy=0;exitX=1;exitY=0.5;exitDx=0;exitDy=0;" edge="1" parent="1" source="AIpgbeA93NJmp3kinmn9-1" target="NmKo0EHqz39Op1osBqyC-3">
          <mxGeometry width="50" height="50" relative="1" as="geometry">
            <mxPoint x="660" y="-330" as="sourcePoint" />
            <mxPoint x="780" y="-330" as="targetPoint" />
            <Array as="points" />
          </mxGeometry>
        </mxCell>
        <mxCell id="NmKo0EHqz39Op1osBqyC-9" value="1" style="edgeLabel;html=1;align=center;verticalAlign=middle;resizable=0;points=[];" connectable="0" vertex="1" parent="NmKo0EHqz39Op1osBqyC-6">
          <mxGeometry x="0.0863" relative="1" as="geometry">
            <mxPoint as="offset" />
          </mxGeometry>
        </mxCell>
        <mxCell id="NmKo0EHqz39Op1osBqyC-19" value="" style="endArrow=none;html=1;rounded=0;exitX=0;exitY=0.5;exitDx=0;exitDy=0;entryX=1;entryY=0.5;entryDx=0;entryDy=0;" edge="1" parent="1" source="AIpgbeA93NJmp3kinmn9-1" target="NmKo0EHqz39Op1osBqyC-20">
          <mxGeometry width="50" height="50" relative="1" as="geometry">
            <mxPoint x="280" y="-100" as="sourcePoint" />
            <mxPoint x="330" y="-150" as="targetPoint" />
            <Array as="points">
              <mxPoint x="190" y="-340" />
            </Array>
          </mxGeometry>
        </mxCell>
        <mxCell id="NmKo0EHqz39Op1osBqyC-24" value="N" style="edgeLabel;html=1;align=center;verticalAlign=middle;resizable=0;points=[];" connectable="0" vertex="1" parent="NmKo0EHqz39Op1osBqyC-19">
          <mxGeometry x="0.0314" y="2" relative="1" as="geometry">
            <mxPoint as="offset" />
          </mxGeometry>
        </mxCell>
        <mxCell id="NmKo0EHqz39Op1osBqyC-20" value="&lt;span style=&quot;font-size: 15px;&quot;&gt;Managed&lt;/span&gt;" style="rhombus;whiteSpace=wrap;html=1;" vertex="1" parent="1">
          <mxGeometry x="-50" y="-380" width="120" height="80" as="geometry" />
        </mxCell>
        <mxCell id="NmKo0EHqz39Op1osBqyC-25" value="" style="endArrow=none;html=1;rounded=0;entryX=0;entryY=0.5;entryDx=0;entryDy=0;exitX=1;exitY=0.5;exitDx=0;exitDy=0;" edge="1" parent="1">
          <mxGeometry width="50" height="50" relative="1" as="geometry">
            <mxPoint x="-220" y="-340.5" as="sourcePoint" />
            <mxPoint x="-50" y="-340.5" as="targetPoint" />
            <Array as="points" />
          </mxGeometry>
        </mxCell>
        <mxCell id="NmKo0EHqz39Op1osBqyC-26" value="1" style="edgeLabel;html=1;align=center;verticalAlign=middle;resizable=0;points=[];" connectable="0" vertex="1" parent="NmKo0EHqz39Op1osBqyC-25">
          <mxGeometry x="0.0863" relative="1" as="geometry">
            <mxPoint as="offset" />
          </mxGeometry>
        </mxCell>
        <mxCell id="NmKo0EHqz39Op1osBqyC-27" value="&lt;font style=&quot;font-size: 15px;&quot;&gt;Received&lt;/font&gt;" style="rhombus;whiteSpace=wrap;html=1;" vertex="1" parent="1">
          <mxGeometry x="-50" y="-230" width="120" height="80" as="geometry" />
        </mxCell>
        <mxCell id="NmKo0EHqz39Op1osBqyC-28" value="" style="endArrow=none;html=1;rounded=0;entryX=0.5;entryY=1;entryDx=0;entryDy=0;exitX=0;exitY=0.5;exitDx=0;exitDy=0;" edge="1" parent="1" source="NmKo0EHqz39Op1osBqyC-27" target="NmKo0EHqz39Op1osBqyC-1">
          <mxGeometry width="50" height="50" relative="1" as="geometry">
            <mxPoint x="280" as="sourcePoint" />
            <mxPoint x="330" y="-50" as="targetPoint" />
          </mxGeometry>
        </mxCell>
        <mxCell id="NmKo0EHqz39Op1osBqyC-29" value="1" style="edgeLabel;html=1;align=center;verticalAlign=middle;resizable=0;points=[];" connectable="0" vertex="1" parent="NmKo0EHqz39Op1osBqyC-28">
          <mxGeometry x="0.0129" y="-2" relative="1" as="geometry">
            <mxPoint as="offset" />
          </mxGeometry>
        </mxCell>
        <mxCell id="NmKo0EHqz39Op1osBqyC-30" value="" style="endArrow=none;html=1;rounded=0;entryX=1;entryY=0.5;entryDx=0;entryDy=0;exitX=0.5;exitY=0;exitDx=0;exitDy=0;" edge="1" parent="1" source="AIpgbeA93NJmp3kinmn9-64" target="NmKo0EHqz39Op1osBqyC-27">
          <mxGeometry width="50" height="50" relative="1" as="geometry">
            <mxPoint x="280" as="sourcePoint" />
            <mxPoint x="330" y="-50" as="targetPoint" />
          </mxGeometry>
        </mxCell>
        <mxCell id="NmKo0EHqz39Op1osBqyC-31" value="N" style="edgeLabel;html=1;align=center;verticalAlign=middle;resizable=0;points=[];" connectable="0" vertex="1" parent="NmKo0EHqz39Op1osBqyC-30">
          <mxGeometry x="0.1226" y="1" relative="1" as="geometry">
            <mxPoint as="offset" />
          </mxGeometry>
        </mxCell>
        <mxCell id="NmKo0EHqz39Op1osBqyC-32" value="&lt;font style=&quot;font-size: 15px;&quot;&gt;Decided&lt;/font&gt;" style="rhombus;whiteSpace=wrap;html=1;" vertex="1" parent="1">
          <mxGeometry x="597" y="-230" width="120" height="80" as="geometry" />
        </mxCell>
        <mxCell id="NmKo0EHqz39Op1osBqyC-33" value="" style="endArrow=none;html=1;rounded=0;entryX=0;entryY=0.5;entryDx=0;entryDy=0;" edge="1" parent="1" target="NmKo0EHqz39Op1osBqyC-32">
          <mxGeometry width="50" height="50" relative="1" as="geometry">
            <mxPoint x="300" y="-40" as="sourcePoint" />
            <mxPoint x="80" y="-180" as="targetPoint" />
            <Array as="points">
              <mxPoint x="500" y="-140" />
            </Array>
          </mxGeometry>
        </mxCell>
        <mxCell id="NmKo0EHqz39Op1osBqyC-35" value="1" style="edgeLabel;html=1;align=center;verticalAlign=middle;resizable=0;points=[];" connectable="0" vertex="1" parent="NmKo0EHqz39Op1osBqyC-33">
          <mxGeometry x="0.2097" y="1" relative="1" as="geometry">
            <mxPoint as="offset" />
          </mxGeometry>
        </mxCell>
        <mxCell id="NmKo0EHqz39Op1osBqyC-36" value="" style="endArrow=none;html=1;rounded=0;entryX=0.5;entryY=1;entryDx=0;entryDy=0;exitX=1;exitY=0.5;exitDx=0;exitDy=0;" edge="1" parent="1" source="NmKo0EHqz39Op1osBqyC-32" target="NmKo0EHqz39Op1osBqyC-2">
          <mxGeometry width="50" height="50" relative="1" as="geometry">
            <mxPoint x="660" y="-330" as="sourcePoint" />
            <mxPoint x="780" y="-330" as="targetPoint" />
          </mxGeometry>
        </mxCell>
        <mxCell id="NmKo0EHqz39Op1osBqyC-37" value="[0,1]" style="edgeLabel;html=1;align=center;verticalAlign=middle;resizable=0;points=[];" connectable="0" vertex="1" parent="NmKo0EHqz39Op1osBqyC-36">
          <mxGeometry x="0.0722" y="-1" relative="1" as="geometry">
            <mxPoint as="offset" />
          </mxGeometry>
        </mxCell>
        <mxCell id="NmKo0EHqz39Op1osBqyC-48" value="" style="endArrow=none;html=1;rounded=0;entryX=0.5;entryY=1;entryDx=0;entryDy=0;" edge="1" parent="1" target="AIpgbeA93NJmp3kinmn9-64">
          <mxGeometry width="50" height="50" relative="1" as="geometry">
            <mxPoint x="300" y="130" as="sourcePoint" />
            <mxPoint x="310" y="30" as="targetPoint" />
          </mxGeometry>
        </mxCell>
        <mxCell id="NmKo0EHqz39Op1osBqyC-50" value="&lt;font style=&quot;font-size: 16px;&quot;&gt;MEDICATION&lt;br&gt;&lt;/font&gt;" style="rounded=0;whiteSpace=wrap;html=1;" vertex="1" parent="1">
          <mxGeometry x="-60" y="290" width="120" height="60" as="geometry" />
        </mxCell>
        <mxCell id="_GpkF45xMww4zKi-DUgt-10" style="rounded=0;orthogonalLoop=1;jettySize=auto;html=1;entryX=0.5;entryY=0;entryDx=0;entryDy=0;endArrow=none;endFill=0;" edge="1" parent="1" source="2goX5_08iMtre9aVL-ch-25">
          <mxGeometry relative="1" as="geometry">
            <mxPoint x="720" y="430" as="sourcePoint" />
            <mxPoint x="610" y="500" as="targetPoint" />
          </mxGeometry>
        </mxCell>
        <mxCell id="NmKo0EHqz39Op1osBqyC-51" value="&lt;font style=&quot;font-size: 16px;&quot;&gt;GENERAL HEALTH STATUS&lt;br&gt;&lt;/font&gt;" style="rounded=0;whiteSpace=wrap;html=1;" vertex="1" parent="1">
          <mxGeometry x="235" y="420" width="130" height="80" as="geometry" />
        </mxCell>
        <mxCell id="_GpkF45xMww4zKi-DUgt-26" style="edgeStyle=none;shape=connector;rounded=0;orthogonalLoop=1;jettySize=auto;html=1;exitX=1;exitY=0.5;exitDx=0;exitDy=0;entryX=0.5;entryY=1;entryDx=0;entryDy=0;labelBackgroundColor=default;strokeColor=default;align=center;verticalAlign=middle;fontFamily=Helvetica;fontSize=11;fontColor=default;endArrow=none;endFill=0;" edge="1" parent="1" target="2goX5_08iMtre9aVL-ch-2">
          <mxGeometry relative="1" as="geometry">
            <mxPoint x="780" y="320" as="sourcePoint" />
          </mxGeometry>
        </mxCell>
        <mxCell id="NmKo0EHqz39Op1osBqyC-52" value="&lt;font style=&quot;font-size: 16px;&quot;&gt;TEST RESULT&lt;/font&gt;" style="rounded=0;whiteSpace=wrap;html=1;" vertex="1" parent="1">
          <mxGeometry x="660" y="290" width="120" height="60" as="geometry" />
        </mxCell>
        <mxCell id="NmKo0EHqz39Op1osBqyC-57" value="Gender" style="ellipse;whiteSpace=wrap;html=1;" vertex="1" parent="1">
          <mxGeometry x="370" y="-620" width="120" height="50" as="geometry" />
        </mxCell>
        <mxCell id="NmKo0EHqz39Op1osBqyC-58" value="&lt;u&gt;Patient ID&lt;/u&gt;" style="ellipse;whiteSpace=wrap;html=1;" vertex="1" parent="1">
          <mxGeometry x="230" y="-640" width="120" height="50" as="geometry" />
        </mxCell>
        <mxCell id="NmKo0EHqz39Op1osBqyC-60" value="Name" style="ellipse;whiteSpace=wrap;html=1;" vertex="1" parent="1">
          <mxGeometry x="460" y="-550" width="120" height="50" as="geometry" />
        </mxCell>
        <mxCell id="NmKo0EHqz39Op1osBqyC-61" value="" style="endArrow=none;html=1;rounded=0;exitX=0.5;exitY=1;exitDx=0;exitDy=0;entryX=0.5;entryY=0;entryDx=0;entryDy=0;" edge="1" parent="1" target="AIpgbeA93NJmp3kinmn9-1">
          <mxGeometry width="50" height="50" relative="1" as="geometry">
            <mxPoint x="110" y="-480" as="sourcePoint" />
            <mxPoint x="330" y="-320" as="targetPoint" />
          </mxGeometry>
        </mxCell>
        <mxCell id="NmKo0EHqz39Op1osBqyC-64" value="" style="endArrow=none;html=1;rounded=0;entryX=0.5;entryY=1;entryDx=0;entryDy=0;" edge="1" parent="1" target="NmKo0EHqz39Op1osBqyC-58">
          <mxGeometry width="50" height="50" relative="1" as="geometry">
            <mxPoint x="300" y="-370" as="sourcePoint" />
            <mxPoint x="350" y="-420" as="targetPoint" />
          </mxGeometry>
        </mxCell>
        <mxCell id="NmKo0EHqz39Op1osBqyC-65" value="" style="endArrow=none;html=1;rounded=0;entryX=0.5;entryY=1;entryDx=0;entryDy=0;" edge="1" parent="1" target="NmKo0EHqz39Op1osBqyC-57">
          <mxGeometry width="50" height="50" relative="1" as="geometry">
            <mxPoint x="300" y="-370" as="sourcePoint" />
            <mxPoint x="350" y="-420" as="targetPoint" />
          </mxGeometry>
        </mxCell>
        <mxCell id="NmKo0EHqz39Op1osBqyC-66" value="" style="endArrow=none;html=1;rounded=0;entryX=0.5;entryY=1;entryDx=0;entryDy=0;" edge="1" parent="1" target="NmKo0EHqz39Op1osBqyC-60">
          <mxGeometry width="50" height="50" relative="1" as="geometry">
            <mxPoint x="300" y="-370" as="sourcePoint" />
            <mxPoint x="350" y="-420" as="targetPoint" />
          </mxGeometry>
        </mxCell>
        <mxCell id="NmKo0EHqz39Op1osBqyC-68" value="" style="endArrow=none;html=1;rounded=0;entryX=0.5;entryY=1;entryDx=0;entryDy=0;exitX=0.5;exitY=0;exitDx=0;exitDy=0;" edge="1" parent="1" target="NmKo0EHqz39Op1osBqyC-69">
          <mxGeometry width="50" height="50" relative="1" as="geometry">
            <mxPoint x="833.1" y="-375" as="sourcePoint" />
            <mxPoint x="833.1" y="-485" as="targetPoint" />
          </mxGeometry>
        </mxCell>
        <mxCell id="NmKo0EHqz39Op1osBqyC-69" value="&lt;u&gt;Discharge Location ID&lt;/u&gt;" style="ellipse;whiteSpace=wrap;html=1;" vertex="1" parent="1">
          <mxGeometry x="780" y="-562.5" width="140" height="60" as="geometry" />
        </mxCell>
        <mxCell id="NmKo0EHqz39Op1osBqyC-70" value="Name" style="ellipse;whiteSpace=wrap;html=1;" vertex="1" parent="1">
          <mxGeometry x="660" y="-515" width="120" height="50" as="geometry" />
        </mxCell>
        <mxCell id="NmKo0EHqz39Op1osBqyC-71" value="" style="endArrow=none;html=1;rounded=0;entryX=0.5;entryY=1;entryDx=0;entryDy=0;" edge="1" parent="1">
          <mxGeometry width="50" height="50" relative="1" as="geometry">
            <mxPoint x="833.1" y="-375" as="sourcePoint" />
            <mxPoint x="723.1" y="-465" as="targetPoint" />
          </mxGeometry>
        </mxCell>
        <mxCell id="NmKo0EHqz39Op1osBqyC-72" value="Address" style="ellipse;whiteSpace=wrap;html=1;" vertex="1" parent="1">
          <mxGeometry x="933.1" y="-515" width="120" height="50" as="geometry" />
        </mxCell>
        <mxCell id="NmKo0EHqz39Op1osBqyC-73" value="" style="endArrow=none;html=1;rounded=0;entryX=0.5;entryY=1;entryDx=0;entryDy=0;" edge="1" parent="1" target="NmKo0EHqz39Op1osBqyC-72">
          <mxGeometry width="50" height="50" relative="1" as="geometry">
            <mxPoint x="833.1" y="-375" as="sourcePoint" />
            <mxPoint x="883.1" y="-425" as="targetPoint" />
          </mxGeometry>
        </mxCell>
        <mxCell id="NmKo0EHqz39Op1osBqyC-74" value="Contact_Info" style="ellipse;whiteSpace=wrap;html=1;" vertex="1" parent="1">
          <mxGeometry x="993.1" y="-455" width="120" height="50" as="geometry" />
        </mxCell>
        <mxCell id="NmKo0EHqz39Op1osBqyC-75" value="" style="endArrow=none;html=1;rounded=0;entryX=0.5;entryY=1;entryDx=0;entryDy=0;" edge="1" parent="1" target="NmKo0EHqz39Op1osBqyC-74">
          <mxGeometry width="50" height="50" relative="1" as="geometry">
            <mxPoint x="833.1" y="-375" as="sourcePoint" />
            <mxPoint x="883.1" y="-425" as="targetPoint" />
          </mxGeometry>
        </mxCell>
        <mxCell id="NmKo0EHqz39Op1osBqyC-76" value="" style="endArrow=none;html=1;rounded=0;entryX=0.5;entryY=1;entryDx=0;entryDy=0;exitX=0.5;exitY=0;exitDx=0;exitDy=0;" edge="1" parent="1" target="NmKo0EHqz39Op1osBqyC-77">
          <mxGeometry width="50" height="50" relative="1" as="geometry">
            <mxPoint x="-280" y="-370" as="sourcePoint" />
            <mxPoint x="-280" y="-480" as="targetPoint" />
          </mxGeometry>
        </mxCell>
        <mxCell id="NmKo0EHqz39Op1osBqyC-77" value="&lt;u&gt;ID&lt;/u&gt;" style="ellipse;whiteSpace=wrap;html=1;" vertex="1" parent="1">
          <mxGeometry x="-310" y="-550" width="120" height="50" as="geometry" />
        </mxCell>
        <mxCell id="NmKo0EHqz39Op1osBqyC-78" value="Name" style="ellipse;whiteSpace=wrap;html=1;" vertex="1" parent="1">
          <mxGeometry x="-430" y="-520" width="120" height="50" as="geometry" />
        </mxCell>
        <mxCell id="NmKo0EHqz39Op1osBqyC-79" value="" style="endArrow=none;html=1;rounded=0;entryX=0.5;entryY=1;entryDx=0;entryDy=0;" edge="1" parent="1" target="NmKo0EHqz39Op1osBqyC-78">
          <mxGeometry width="50" height="50" relative="1" as="geometry">
            <mxPoint x="-280" y="-370" as="sourcePoint" />
            <mxPoint x="-230" y="-420" as="targetPoint" />
          </mxGeometry>
        </mxCell>
        <mxCell id="NmKo0EHqz39Op1osBqyC-82" value="Contact Info" style="ellipse;whiteSpace=wrap;html=1;" vertex="1" parent="1">
          <mxGeometry x="-180" y="-510" width="120" height="50" as="geometry" />
        </mxCell>
        <mxCell id="NmKo0EHqz39Op1osBqyC-83" value="" style="endArrow=none;html=1;rounded=0;entryX=0.5;entryY=1;entryDx=0;entryDy=0;" edge="1" parent="1" target="NmKo0EHqz39Op1osBqyC-82">
          <mxGeometry width="50" height="50" relative="1" as="geometry">
            <mxPoint x="-280" y="-370" as="sourcePoint" />
            <mxPoint x="-230" y="-420" as="targetPoint" />
          </mxGeometry>
        </mxCell>
        <mxCell id="_GpkF45xMww4zKi-DUgt-28" style="edgeStyle=none;shape=connector;rounded=0;orthogonalLoop=1;jettySize=auto;html=1;exitX=0;exitY=0.5;exitDx=0;exitDy=0;entryX=1;entryY=0.5;entryDx=0;entryDy=0;labelBackgroundColor=default;strokeColor=default;align=center;verticalAlign=middle;fontFamily=Helvetica;fontSize=11;fontColor=default;endArrow=none;endFill=0;" edge="1" parent="1" source="_GpkF45xMww4zKi-DUgt-3">
          <mxGeometry relative="1" as="geometry">
            <mxPoint x="780" y="320" as="targetPoint" />
          </mxGeometry>
        </mxCell>
        <mxCell id="_GpkF45xMww4zKi-DUgt-3" value="Result Brief" style="ellipse;whiteSpace=wrap;html=1;" vertex="1" parent="1">
          <mxGeometry x="890" y="335" width="120" height="50" as="geometry" />
        </mxCell>
        <mxCell id="_GpkF45xMww4zKi-DUgt-27" style="edgeStyle=none;shape=connector;rounded=0;orthogonalLoop=1;jettySize=auto;html=1;exitX=0;exitY=0.5;exitDx=0;exitDy=0;labelBackgroundColor=default;strokeColor=default;align=center;verticalAlign=middle;fontFamily=Helvetica;fontSize=11;fontColor=default;endArrow=none;endFill=0;" edge="1" parent="1" source="_GpkF45xMww4zKi-DUgt-4">
          <mxGeometry relative="1" as="geometry">
            <mxPoint x="780" y="320" as="targetPoint" />
          </mxGeometry>
        </mxCell>
        <mxCell id="_GpkF45xMww4zKi-DUgt-4" value="&lt;u&gt;Test ID&lt;/u&gt;" style="ellipse;whiteSpace=wrap;html=1;" vertex="1" parent="1">
          <mxGeometry x="890" y="255" width="120" height="50" as="geometry" />
        </mxCell>
        <mxCell id="3b1TjzW6695VxqI2YM0s-2" value="Home Setting" style="ellipse;whiteSpace=wrap;html=1;" vertex="1" parent="1">
          <mxGeometry x="100" y="-620" width="120" height="50" as="geometry" />
        </mxCell>
        <mxCell id="3b1TjzW6695VxqI2YM0s-3" value="" style="endArrow=none;html=1;rounded=0;entryX=0.5;entryY=1;entryDx=0;entryDy=0;" edge="1" parent="1" target="9C1sLMTKjPvSeGDi-WuJ-1">
          <mxGeometry width="50" height="50" relative="1" as="geometry">
            <mxPoint x="300" y="-370" as="sourcePoint" />
            <mxPoint x="170" y="-560" as="targetPoint" />
          </mxGeometry>
        </mxCell>
        <mxCell id="3b1TjzW6695VxqI2YM0s-4" value="Type" style="ellipse;whiteSpace=wrap;html=1;" vertex="1" parent="1">
          <mxGeometry x="-260" y="220" width="120" height="50" as="geometry" />
        </mxCell>
        <mxCell id="3b1TjzW6695VxqI2YM0s-7" value="Start Date" style="ellipse;whiteSpace=wrap;html=1;" vertex="1" parent="1">
          <mxGeometry x="-150" y="160" width="120" height="50" as="geometry" />
        </mxCell>
        <mxCell id="_GpkF45xMww4zKi-DUgt-29" style="edgeStyle=none;shape=connector;rounded=0;orthogonalLoop=1;jettySize=auto;html=1;exitX=0.5;exitY=0;exitDx=0;exitDy=0;labelBackgroundColor=default;strokeColor=default;align=center;verticalAlign=middle;fontFamily=Helvetica;fontSize=11;fontColor=default;endArrow=none;endFill=0;" edge="1" parent="1" source="2goX5_08iMtre9aVL-ch-1">
          <mxGeometry relative="1" as="geometry">
            <mxPoint x="780" y="320" as="targetPoint" />
          </mxGeometry>
        </mxCell>
        <mxCell id="2goX5_08iMtre9aVL-ch-1" value="Test Date" style="ellipse;whiteSpace=wrap;html=1;" vertex="1" parent="1">
          <mxGeometry x="820" y="415" width="120" height="50" as="geometry" />
        </mxCell>
        <mxCell id="3b1TjzW6695VxqI2YM0s-8" value="Estimated End Date" style="ellipse;whiteSpace=wrap;html=1;" vertex="1" parent="1">
          <mxGeometry x="-150" y="420" width="120" height="50" as="geometry" />
        </mxCell>
        <mxCell id="3b1TjzW6695VxqI2YM0s-9" value="" style="endArrow=none;html=1;rounded=0;exitX=0.5;exitY=0;exitDx=0;exitDy=0;" edge="1" parent="1" source="3b1TjzW6695VxqI2YM0s-8">
          <mxGeometry width="50" height="50" relative="1" as="geometry">
            <mxPoint x="-50" y="400" as="sourcePoint" />
            <mxPoint x="-60" y="320" as="targetPoint" />
            <Array as="points" />
          </mxGeometry>
        </mxCell>
        <mxCell id="_GpkF45xMww4zKi-DUgt-11" style="edgeStyle=none;shape=connector;rounded=0;orthogonalLoop=1;jettySize=auto;html=1;exitX=0.5;exitY=0;exitDx=0;exitDy=0;labelBackgroundColor=default;strokeColor=default;align=center;verticalAlign=middle;fontFamily=Helvetica;fontSize=11;fontColor=default;endArrow=none;endFill=0;" edge="1" parent="1" source="2goX5_08iMtre9aVL-ch-29">
          <mxGeometry relative="1" as="geometry">
            <mxPoint x="720" y="430" as="targetPoint" />
            <Array as="points" />
            <mxPoint x="720" y="527.5" as="sourcePoint" />
          </mxGeometry>
        </mxCell>
        <mxCell id="3b1TjzW6695VxqI2YM0s-5" value="Name" style="ellipse;whiteSpace=wrap;html=1;" vertex="1" parent="1">
          <mxGeometry x="-280" y="295" width="120" height="50" as="geometry" />
        </mxCell>
        <mxCell id="3b1TjzW6695VxqI2YM0s-6" value="&lt;u&gt;ID&lt;/u&gt;" style="ellipse;whiteSpace=wrap;html=1;" vertex="1" parent="1">
          <mxGeometry x="-270" y="390" width="120" height="50" as="geometry" />
        </mxCell>
        <mxCell id="_GpkF45xMww4zKi-DUgt-21" value="" style="rounded=0;orthogonalLoop=1;jettySize=auto;html=1;entryX=1;entryY=0.5;entryDx=0;entryDy=0;endArrow=none;endFill=0;entryPerimeter=0;" edge="1" parent="1" target="2goX5_08iMtre9aVL-ch-25">
          <mxGeometry relative="1" as="geometry">
            <mxPoint x="720" y="430" as="sourcePoint" />
            <mxPoint x="640" y="480" as="targetPoint" />
          </mxGeometry>
        </mxCell>
        <mxCell id="2goX5_08iMtre9aVL-ch-3" value="" style="endArrow=none;html=1;rounded=0;" edge="1" parent="1">
          <mxGeometry width="50" height="50" relative="1" as="geometry">
            <mxPoint x="720" y="400" as="sourcePoint" />
            <mxPoint x="720" y="350" as="targetPoint" />
          </mxGeometry>
        </mxCell>
        <mxCell id="2goX5_08iMtre9aVL-ch-25" value="" style="shape=requiredInterface;html=1;verticalLabelPosition=bottom;sketch=0;rotation=145;" vertex="1" parent="1">
          <mxGeometry x="640" y="457.5" width="30" height="25" as="geometry" />
        </mxCell>
        <mxCell id="3b1TjzW6695VxqI2YM0s-15" value="&lt;font style=&quot;font-size: 16px;&quot;&gt;D&lt;/font&gt;" style="ellipse;whiteSpace=wrap;html=1;aspect=fixed;" vertex="1" parent="1">
          <mxGeometry x="705" y="400" width="30" height="30" as="geometry" />
        </mxCell>
        <mxCell id="3b1TjzW6695VxqI2YM0s-10" value="" style="endArrow=none;html=1;rounded=0;exitX=0.5;exitY=0;exitDx=0;exitDy=0;" edge="1" parent="1" source="3b1TjzW6695VxqI2YM0s-6">
          <mxGeometry width="50" height="50" relative="1" as="geometry">
            <mxPoint x="-110" y="370" as="sourcePoint" />
            <mxPoint x="-60" y="320" as="targetPoint" />
          </mxGeometry>
        </mxCell>
        <mxCell id="3b1TjzW6695VxqI2YM0s-13" value="" style="endArrow=none;html=1;rounded=0;entryX=0;entryY=0.5;entryDx=0;entryDy=0;exitX=0.5;exitY=1;exitDx=0;exitDy=0;" edge="1" parent="1" source="3b1TjzW6695VxqI2YM0s-7" target="NmKo0EHqz39Op1osBqyC-50">
          <mxGeometry width="50" height="50" relative="1" as="geometry">
            <mxPoint x="-140" y="240" as="sourcePoint" />
            <mxPoint x="-40" y="240" as="targetPoint" />
          </mxGeometry>
        </mxCell>
        <mxCell id="3b1TjzW6695VxqI2YM0s-11" value="" style="endArrow=none;html=1;rounded=0;exitX=1;exitY=0.5;exitDx=0;exitDy=0;" edge="1" parent="1" source="3b1TjzW6695VxqI2YM0s-5">
          <mxGeometry width="50" height="50" relative="1" as="geometry">
            <mxPoint x="-150" y="350" as="sourcePoint" />
            <mxPoint x="-60" y="320" as="targetPoint" />
          </mxGeometry>
        </mxCell>
        <mxCell id="2goX5_08iMtre9aVL-ch-2" value="Test Name" style="ellipse;whiteSpace=wrap;html=1;" vertex="1" parent="1">
          <mxGeometry x="860" y="160" width="120" height="50" as="geometry" />
        </mxCell>
        <mxCell id="3b1TjzW6695VxqI2YM0s-12" value="" style="endArrow=none;html=1;rounded=0;exitX=1;exitY=0.5;exitDx=0;exitDy=0;" edge="1" parent="1" source="3b1TjzW6695VxqI2YM0s-4">
          <mxGeometry width="50" height="50" relative="1" as="geometry">
            <mxPoint x="-140" y="330" as="sourcePoint" />
            <mxPoint x="-60" y="320" as="targetPoint" />
          </mxGeometry>
        </mxCell>
        <mxCell id="3b1TjzW6695VxqI2YM0s-21" value="Age" style="ellipse;whiteSpace=wrap;html=1;align=center;dashed=1;" vertex="1" parent="1">
          <mxGeometry x="50" y="-525" width="120" height="45" as="geometry" />
        </mxCell>
        <mxCell id="2goX5_08iMtre9aVL-ch-27" value="LABORATORY DATA" style="rounded=0;whiteSpace=wrap;html=1;" vertex="1" parent="1">
          <mxGeometry x="550" y="500" width="100" height="60" as="geometry" />
        </mxCell>
        <mxCell id="2goX5_08iMtre9aVL-ch-29" value="X-RAY RESULT" style="rounded=0;whiteSpace=wrap;html=1;" vertex="1" parent="1">
          <mxGeometry x="780" y="526.5" width="80" height="50" as="geometry" />
        </mxCell>
        <mxCell id="2goX5_08iMtre9aVL-ch-30" value="Contact_Info" style="ellipse;whiteSpace=wrap;html=1;" vertex="1" parent="1">
          <mxGeometry x="500" y="-470" width="120" height="50" as="geometry" />
        </mxCell>
        <mxCell id="2goX5_08iMtre9aVL-ch-31" value="" style="endArrow=none;html=1;rounded=0;entryX=0.5;entryY=1;entryDx=0;entryDy=0;" edge="1" parent="1" target="2goX5_08iMtre9aVL-ch-30">
          <mxGeometry width="50" height="50" relative="1" as="geometry">
            <mxPoint x="304" y="-370" as="sourcePoint" />
            <mxPoint x="354" y="-420" as="targetPoint" />
          </mxGeometry>
        </mxCell>
        <mxCell id="_GpkF45xMww4zKi-DUgt-38" value="" style="endArrow=none;html=1;rounded=0;exitX=0.5;exitY=0;exitDx=0;exitDy=0;" edge="1" parent="1" source="3b1TjzW6695VxqI2YM0s-26">
          <mxGeometry width="50" height="50" relative="1" as="geometry">
            <mxPoint x="230" y="576.5" as="sourcePoint" />
            <mxPoint x="300" y="500" as="targetPoint" />
          </mxGeometry>
        </mxCell>
        <mxCell id="3b1TjzW6695VxqI2YM0s-26" value="Status Type" style="ellipse;whiteSpace=wrap;html=1;" vertex="1" parent="1">
          <mxGeometry y="561.5" width="120" height="50" as="geometry" />
        </mxCell>
        <mxCell id="2goX5_08iMtre9aVL-ch-35" value="&lt;u&gt;Status ID&lt;/u&gt;" style="ellipse;whiteSpace=wrap;html=1;" vertex="1" parent="1">
          <mxGeometry x="130" y="576.5" width="120" height="50" as="geometry" />
        </mxCell>
        <mxCell id="2goX5_08iMtre9aVL-ch-36" value="Status Brief" style="ellipse;whiteSpace=wrap;html=1;" vertex="1" parent="1">
          <mxGeometry x="270" y="580" width="120" height="50" as="geometry" />
        </mxCell>
        <mxCell id="3b1TjzW6695VxqI2YM0s-27" value="" style="endArrow=none;html=1;rounded=0;exitX=0.5;exitY=0;exitDx=0;exitDy=0;entryX=0.5;entryY=1;entryDx=0;entryDy=0;" edge="1" parent="1" source="2goX5_08iMtre9aVL-ch-35" target="NmKo0EHqz39Op1osBqyC-51">
          <mxGeometry width="50" height="50" relative="1" as="geometry">
            <mxPoint x="280" y="520" as="sourcePoint" />
            <mxPoint x="330" y="470" as="targetPoint" />
          </mxGeometry>
        </mxCell>
        <mxCell id="_GpkF45xMww4zKi-DUgt-51" style="edgeStyle=none;shape=connector;rounded=0;orthogonalLoop=1;jettySize=auto;html=1;exitX=0.5;exitY=0;exitDx=0;exitDy=0;entryX=0.5;entryY=1;entryDx=0;entryDy=0;labelBackgroundColor=default;strokeColor=default;align=center;verticalAlign=middle;fontFamily=Helvetica;fontSize=11;fontColor=default;endArrow=none;endFill=0;" edge="1" parent="1" source="2goX5_08iMtre9aVL-ch-37" target="NmKo0EHqz39Op1osBqyC-51">
          <mxGeometry relative="1" as="geometry" />
        </mxCell>
        <mxCell id="2goX5_08iMtre9aVL-ch-37" value="Measured Time" style="ellipse;whiteSpace=wrap;html=1;" vertex="1" parent="1">
          <mxGeometry x="370" y="526.5" width="120" height="50" as="geometry" />
        </mxCell>
        <mxCell id="3b1TjzW6695VxqI2YM0s-28" value="" style="endArrow=none;html=1;rounded=0;entryX=0.5;entryY=1;entryDx=0;entryDy=0;" edge="1" parent="1" target="NmKo0EHqz39Op1osBqyC-51">
          <mxGeometry width="50" height="50" relative="1" as="geometry">
            <mxPoint x="330" y="580" as="sourcePoint" />
            <mxPoint x="380" y="530" as="targetPoint" />
          </mxGeometry>
        </mxCell>
        <mxCell id="Ixn78SWSzMhwFPWhjFRg-2" value="Photo No." style="ellipse;whiteSpace=wrap;html=1;" vertex="1" parent="1">
          <mxGeometry x="775" y="626.5" width="120" height="50" as="geometry" />
        </mxCell>
        <mxCell id="Ixn78SWSzMhwFPWhjFRg-3" value="" style="endArrow=none;html=1;rounded=0;entryX=0.5;entryY=1;entryDx=0;entryDy=0;" edge="1" parent="1">
          <mxGeometry width="50" height="50" relative="1" as="geometry">
            <mxPoint x="830" y="626.5" as="sourcePoint" />
            <mxPoint x="820" y="576.5" as="targetPoint" />
          </mxGeometry>
        </mxCell>
        <mxCell id="Ixn78SWSzMhwFPWhjFRg-6" value="Inflammatory markers type" style="ellipse;whiteSpace=wrap;html=1;" vertex="1" parent="1">
          <mxGeometry x="550" y="611.5" width="140" height="70" as="geometry" />
        </mxCell>
        <mxCell id="Ixn78SWSzMhwFPWhjFRg-7" value="" style="endArrow=none;html=1;rounded=0;entryX=0.5;entryY=1;entryDx=0;entryDy=0;exitX=0.5;exitY=0;exitDx=0;exitDy=0;" edge="1" parent="1" source="Ixn78SWSzMhwFPWhjFRg-6" target="2goX5_08iMtre9aVL-ch-27">
          <mxGeometry width="50" height="50" relative="1" as="geometry">
            <mxPoint x="560" y="600" as="sourcePoint" />
            <mxPoint x="550" y="550" as="targetPoint" />
          </mxGeometry>
        </mxCell>
        <mxCell id="5trkM3WKW3lWQrf42v0m-6" style="edgeStyle=none;shape=connector;rounded=0;orthogonalLoop=1;jettySize=auto;html=1;exitX=1;exitY=0.5;exitDx=0;exitDy=0;labelBackgroundColor=default;strokeColor=default;align=center;verticalAlign=middle;fontFamily=Helvetica;fontSize=11;fontColor=default;endArrow=none;endFill=0;exitPerimeter=0;" edge="1" parent="1" source="5trkM3WKW3lWQrf42v0m-13">
          <mxGeometry relative="1" as="geometry">
            <mxPoint x="300" y="160" as="targetPoint" />
            <Array as="points" />
          </mxGeometry>
        </mxCell>
        <mxCell id="5trkM3WKW3lWQrf42v0m-7" value="" style="rounded=0;orthogonalLoop=1;jettySize=auto;html=1;entryX=0.5;entryY=0;entryDx=0;entryDy=0;endArrow=none;endFill=0;exitX=0.5;exitY=1;exitDx=0;exitDy=0;" edge="1" parent="1" source="5trkM3WKW3lWQrf42v0m-9" target="NmKo0EHqz39Op1osBqyC-50">
          <mxGeometry relative="1" as="geometry">
            <mxPoint x="300" y="160" as="sourcePoint" />
            <mxPoint x="92.00961894323336" y="250" as="targetPoint" />
          </mxGeometry>
        </mxCell>
        <mxCell id="5trkM3WKW3lWQrf42v0m-9" value="&lt;font style=&quot;font-size: 16px;&quot;&gt;D&lt;/font&gt;" style="ellipse;whiteSpace=wrap;html=1;aspect=fixed;" vertex="1" parent="1">
          <mxGeometry x="280" y="130" width="45" height="45" as="geometry" />
        </mxCell>
        <mxCell id="5trkM3WKW3lWQrf42v0m-10" value="" style="shape=requiredInterface;html=1;verticalLabelPosition=bottom;sketch=0;rotation=15;" vertex="1" parent="1">
          <mxGeometry x="490" y="217.5" width="30" height="25" as="geometry" />
        </mxCell>
        <mxCell id="5trkM3WKW3lWQrf42v0m-11" style="edgeStyle=none;shape=connector;rounded=0;orthogonalLoop=1;jettySize=auto;html=1;labelBackgroundColor=default;strokeColor=default;align=center;verticalAlign=middle;fontFamily=Helvetica;fontSize=11;fontColor=default;endArrow=none;endFill=0;entryX=0.5;entryY=1;entryDx=0;entryDy=0;exitX=0.5;exitY=0;exitDx=0;exitDy=0;" edge="1" parent="1" source="NmKo0EHqz39Op1osBqyC-52" target="5trkM3WKW3lWQrf42v0m-9">
          <mxGeometry relative="1" as="geometry">
            <mxPoint x="300" y="180" as="targetPoint" />
            <mxPoint x="570" y="330" as="sourcePoint" />
          </mxGeometry>
        </mxCell>
        <mxCell id="5trkM3WKW3lWQrf42v0m-12" value="" style="edgeStyle=none;shape=connector;rounded=0;orthogonalLoop=1;jettySize=auto;html=1;exitX=0.5;exitY=0;exitDx=0;exitDy=0;labelBackgroundColor=default;strokeColor=default;align=center;verticalAlign=middle;fontFamily=Helvetica;fontSize=11;fontColor=default;endArrow=none;endFill=0;" edge="1" parent="1" source="NmKo0EHqz39Op1osBqyC-51" target="5trkM3WKW3lWQrf42v0m-13">
          <mxGeometry relative="1" as="geometry">
            <mxPoint x="300" y="160" as="targetPoint" />
            <mxPoint x="300" y="260" as="sourcePoint" />
          </mxGeometry>
        </mxCell>
        <mxCell id="5trkM3WKW3lWQrf42v0m-13" value="" style="shape=requiredInterface;html=1;verticalLabelPosition=bottom;sketch=0;rotation=90;" vertex="1" parent="1">
          <mxGeometry x="285" y="290" width="30" height="25" as="geometry" />
        </mxCell>
        <mxCell id="5trkM3WKW3lWQrf42v0m-29" value="" style="shape=requiredInterface;html=1;verticalLabelPosition=bottom;sketch=0;rotation=-210;" vertex="1" parent="1">
          <mxGeometry x="115" y="227.5" width="30" height="25" as="geometry" />
        </mxCell>
        <mxCell id="5trkM3WKW3lWQrf42v0m-30" value="" style="shape=requiredInterface;html=1;verticalLabelPosition=bottom;sketch=0;rotation=45;" vertex="1" parent="1">
          <mxGeometry x="758" y="469.5" width="30" height="25" as="geometry" />
        </mxCell>
        <mxCell id="5trkM3WKW3lWQrf42v0m-36" value="Admission Date" style="ellipse;whiteSpace=wrap;html=1;" vertex="1" parent="1">
          <mxGeometry x="40" y="-20" width="120" height="50" as="geometry" />
        </mxCell>
        <mxCell id="5trkM3WKW3lWQrf42v0m-37" value="" style="endArrow=none;html=1;rounded=0;exitX=1;exitY=0.5;exitDx=0;exitDy=0;entryX=0;entryY=0.5;entryDx=0;entryDy=0;" edge="1" parent="1" source="5trkM3WKW3lWQrf42v0m-36" target="AIpgbeA93NJmp3kinmn9-64">
          <mxGeometry width="50" height="50" relative="1" as="geometry">
            <mxPoint x="295" y="65" as="sourcePoint" />
            <mxPoint x="235" y="65" as="targetPoint" />
          </mxGeometry>
        </mxCell>
        <mxCell id="5trkM3WKW3lWQrf42v0m-38" value="Have_Quarantine _Education" style="ellipse;whiteSpace=wrap;html=1;" vertex="1" parent="1">
          <mxGeometry x="470" y="50" width="120" height="50" as="geometry" />
        </mxCell>
        <mxCell id="5trkM3WKW3lWQrf42v0m-39" value="" style="endArrow=none;html=1;rounded=0;exitX=1;exitY=0.5;exitDx=0;exitDy=0;entryX=0;entryY=0.5;entryDx=0;entryDy=0;" edge="1" parent="1">
          <mxGeometry width="50" height="50" relative="1" as="geometry">
            <mxPoint x="360" y="-11" as="sourcePoint" />
            <mxPoint x="459.99999999998954" y="-11" as="targetPoint" />
          </mxGeometry>
        </mxCell>
        <mxCell id="5trkM3WKW3lWQrf42v0m-40" value="" style="endArrow=none;html=1;rounded=0;entryX=0;entryY=0.5;entryDx=0;entryDy=0;exitX=1;exitY=0.5;exitDx=0;exitDy=0;" edge="1" parent="1" source="AIpgbeA93NJmp3kinmn9-64" target="5trkM3WKW3lWQrf42v0m-38">
          <mxGeometry width="50" height="50" relative="1" as="geometry">
            <mxPoint x="370" y="54" as="sourcePoint" />
            <mxPoint x="470" y="54.29" as="targetPoint" />
          </mxGeometry>
        </mxCell>
        <mxCell id="5trkM3WKW3lWQrf42v0m-41" value="Duration of Admission" style="ellipse;whiteSpace=wrap;html=1;dashed=1;" vertex="1" parent="1">
          <mxGeometry x="40" y="60" width="140" height="60" as="geometry" />
        </mxCell>
        <mxCell id="5trkM3WKW3lWQrf42v0m-42" value="" style="endArrow=none;html=1;rounded=0;exitX=1;exitY=0.5;exitDx=0;exitDy=0;" edge="1" parent="1" source="5trkM3WKW3lWQrf42v0m-41">
          <mxGeometry width="50" height="50" relative="1" as="geometry">
            <mxPoint x="285" y="115" as="sourcePoint" />
            <mxPoint x="240" y="-10" as="targetPoint" />
          </mxGeometry>
        </mxCell>
        <mxCell id="9C1sLMTKjPvSeGDi-WuJ-1" value="" style="ellipse;whiteSpace=wrap;html=1;fillColor=none;" vertex="1" parent="1">
          <mxGeometry x="95" y="-627.5" width="130" height="65" as="geometry" />
        </mxCell>
        <mxCell id="9C1sLMTKjPvSeGDi-WuJ-2" value="" style="endArrow=none;html=1;rounded=0;exitX=0.5;exitY=0;exitDx=0;exitDy=0;entryX=0.5;entryY=1;entryDx=0;entryDy=0;" edge="1" parent="1" source="9C1sLMTKjPvSeGDi-WuJ-1" target="9C1sLMTKjPvSeGDi-WuJ-3">
          <mxGeometry width="50" height="50" relative="1" as="geometry">
            <mxPoint x="130" y="-660" as="sourcePoint" />
            <mxPoint x="60" y="-760" as="targetPoint" />
          </mxGeometry>
        </mxCell>
        <mxCell id="9C1sLMTKjPvSeGDi-WuJ-3" value="Is_Separated_Bedroom" style="ellipse;whiteSpace=wrap;html=1;" vertex="1" parent="1">
          <mxGeometry x="30" y="-810" width="140" height="60" as="geometry" />
        </mxCell>
        <mxCell id="9C1sLMTKjPvSeGDi-WuJ-8" value="" style="endArrow=none;html=1;rounded=0;entryX=0.5;entryY=1;entryDx=0;entryDy=0;" edge="1" parent="1" target="9C1sLMTKjPvSeGDi-WuJ-9">
          <mxGeometry width="50" height="50" relative="1" as="geometry">
            <mxPoint x="160" y="-627.5" as="sourcePoint" />
            <mxPoint x="247.5" y="-737.5" as="targetPoint" />
          </mxGeometry>
        </mxCell>
        <mxCell id="9C1sLMTKjPvSeGDi-WuJ-9" value="Is _Homeless" style="ellipse;whiteSpace=wrap;html=1;" vertex="1" parent="1">
          <mxGeometry x="182.5" y="-787.5" width="120" height="50" as="geometry" />
        </mxCell>
        <mxCell id="9C1sLMTKjPvSeGDi-WuJ-13" value="" style="endArrow=none;html=1;rounded=0;exitX=0.5;exitY=0;exitDx=0;exitDy=0;entryX=0.5;entryY=1;entryDx=0;entryDy=0;" edge="1" parent="1" source="9C1sLMTKjPvSeGDi-WuJ-1" target="9C1sLMTKjPvSeGDi-WuJ-14">
          <mxGeometry width="50" height="50" relative="1" as="geometry">
            <mxPoint x="85" y="-565" as="sourcePoint" />
            <mxPoint x="-15" y="-698" as="targetPoint" />
          </mxGeometry>
        </mxCell>
        <mxCell id="9C1sLMTKjPvSeGDi-WuJ-14" value="Address" style="ellipse;whiteSpace=wrap;html=1;" vertex="1" parent="1">
          <mxGeometry x="-25" y="-738" width="120" height="50" as="geometry" />
        </mxCell>
        <mxCell id="9C1sLMTKjPvSeGDi-WuJ-15" value="" style="endArrow=none;html=1;rounded=0;exitX=0.5;exitY=0;exitDx=0;exitDy=0;entryX=0.5;entryY=1;entryDx=0;entryDy=0;" edge="1" parent="1" source="9C1sLMTKjPvSeGDi-WuJ-1" target="9C1sLMTKjPvSeGDi-WuJ-16">
          <mxGeometry width="50" height="50" relative="1" as="geometry">
            <mxPoint x="455" y="-617" as="sourcePoint" />
            <mxPoint x="280" y="-688" as="targetPoint" />
          </mxGeometry>
        </mxCell>
        <mxCell id="9C1sLMTKjPvSeGDi-WuJ-16" value="Health status of cohabitants" style="ellipse;whiteSpace=wrap;html=1;" vertex="1" parent="1">
          <mxGeometry x="270" y="-728" width="120" height="50" as="geometry" />
        </mxCell>
        <mxCell id="9C1sLMTKjPvSeGDi-WuJ-17" value="" style="endArrow=none;html=1;rounded=0;exitX=0.5;exitY=0;exitDx=0;exitDy=0;entryX=0.5;entryY=1;entryDx=0;entryDy=0;" edge="1" parent="1" source="9C1sLMTKjPvSeGDi-WuJ-1" target="9C1sLMTKjPvSeGDi-WuJ-18">
          <mxGeometry width="50" height="50" relative="1" as="geometry">
            <mxPoint x="70" y="-567" as="sourcePoint" />
            <mxPoint x="-105" y="-638" as="targetPoint" />
          </mxGeometry>
        </mxCell>
        <mxCell id="9C1sLMTKjPvSeGDi-WuJ-18" value="Have_Face Masks" style="ellipse;whiteSpace=wrap;html=1;" vertex="1" parent="1">
          <mxGeometry x="-115" y="-678" width="120" height="50" as="geometry" />
        </mxCell>
        <mxCell id="sQw_D7uShFJIxMLPb3Mj-1" value="Discharge Location ID" style="ellipse;whiteSpace=wrap;html=1;" vertex="1" parent="1">
          <mxGeometry x="-20" y="-470" width="140" height="60" as="geometry" />
        </mxCell>
        <mxCell id="sQw_D7uShFJIxMLPb3Mj-2" value="" style="endArrow=none;html=1;rounded=0;exitX=1;exitY=0.5;exitDx=0;exitDy=0;" edge="1" parent="1" source="sQw_D7uShFJIxMLPb3Mj-1">
          <mxGeometry width="50" height="50" relative="1" as="geometry">
            <mxPoint x="110" y="-350" as="sourcePoint" />
            <mxPoint x="300" y="-370" as="targetPoint" />
          </mxGeometry>
        </mxCell>
        <mxCell id="a7sBsZL_2dQj8GvNOACI-1" value="Patient ID" style="ellipse;whiteSpace=wrap;html=1;" vertex="1" parent="1">
          <mxGeometry x="-500" y="-455" width="120" height="50" as="geometry" />
        </mxCell>
        <mxCell id="a7sBsZL_2dQj8GvNOACI-2" value="" style="endArrow=none;html=1;rounded=0;entryX=0.5;entryY=0;entryDx=0;entryDy=0;exitX=0.5;exitY=1;exitDx=0;exitDy=0;" edge="1" parent="1" source="a7sBsZL_2dQj8GvNOACI-1" target="NmKo0EHqz39Op1osBqyC-1">
          <mxGeometry width="50" height="50" relative="1" as="geometry">
            <mxPoint x="-420" y="-320" as="sourcePoint" />
            <mxPoint x="-370" y="-370" as="targetPoint" />
          </mxGeometry>
        </mxCell>
      </root>
    </mxGraphModel>
  </diagram>
</mxfile>
